<svg viewBox="0 0 48 48" xmlns="http://www.w3.org/2000/svg">
  <defs>
    <linearGradient id="g" x1="0" y1="0" x2="1" y2="1">
      <stop offset="0" stop-color="#d96f2a"/>
      <stop offset="1" stop-color="#a1421d"/>
    </linearGradient>
  </defs>
  <rect x="1" y="1" width="46" height="46" rx="12" fill="url(#g)"/>
  <circle cx="23" cy="25" r="15.5" fill="none" stroke="#ffffff" stroke-opacity="0.25" stroke-width="1.5"/>
  <path d="M23 25 L36 25 A13 13 0 0 1 23 38 Z" fill="#fff7ed" transform="translate(1.2 1.2)"/>
  <path d="M23 25 L23 38 A13 13 0 0 1 10 25 Z" fill="#fff7ed" transform="translate(-1.2 1.2)"/>
  <path d="M23 25 L10 25 A13 13 0 0 1 23 12 Z" fill="#fff7ed" transform="translate(-1.2 -1.2)"/>
  <path d="M23 25 L23 12 A13 13 0 0 1 36 25 Z" fill="#ffd9a8" transform="translate(3.6 -3.6)"/>
</svg>
